<svg xmlns="http://www.w3.org/2000/svg" xmlns:xlink="http://www.w3.org/1999/xlink" preserveAspectRatio="xMidYMid meet"
     version="1.0" fill-opacity="0.5" stroke-opacity="0" viewBox="0.0 -0.0 484.5 22.2" zoomAndPan="magnify" style="fill: rgb(255, 179, 112);"
     original_string_length="1969">
  <g>
    <g>
      <g id="__id136_su9xzb6pqq">
        <path d="M226.5 13.5L226.5 12.02 136.83 11.05 226.5 10.08 226.5 8.6 0 11.05 226.5 13.5z"
              style="fill: rgb(255, 179, 112);"/>
        <path d="M257.94 8.6L257.94 10.08 347.62 11.05 257.94 12.02 257.94 13.5 484.45 11.05 257.94 8.6z"
              style="fill: rgb(255, 179, 112);"/>
        <path d="M252.95,10.07c-.23-.34-.53-.62-.87-.85-.21-.15-.44-.28-.67-.40-.23-.11-.47-.22-.72-.31.04-.15.06-.29.06-.44,0-.64-.38-1.28-1.15-1.83-.87,2.02-3.47,3.73-7,4.7l7.41-7.69-7.69,7.41c.97-3.52,2.67-6.12,4.69-6.99-.55-.77-1.19-1.15-1.83-1.15-.15,0-.29,.02-.44,.06-.09-.25-.20-.49-.31-.72-.21-.42-.46-.82-.79-1.15-.25-.26-.55-.48-.89-.61-.34-.12-.73-.13-1.07,0-.16,.06-.31,.14-.45,.23-.34,.23-.62,.53-.85,.87-.15,.21-.28,.44-.40,.67-.11,.23-.22,.47-.31,.72-.15-.04-.29-.06-.44-.06-.64,0-1.28,.38-1.83,1.15,2.03,.87,3.74,3.49,4.71,7.03l-7.73-7.45,7.4,7.68c-3.5-.97-6.09-2.67-6.96-4.69-.77,.55-1.15,1.19-1.15,1.83,0,.15,.02,.29,.06,.44-.25,.09-.49,.20-.72,.31-.42,.21-.82,.46-1.15,.79-.26,.25-.48,.55-.61,.89-.12,.34-.13,.73,0,1.07,.06,.16,.14,.31,.23,.45,.23,.34,.53,.62,.87,.85,.21,.15,.44,.28,.67,.40,.23,.11,.47,.22,.72,.31-.04,.15-.06,.29-.06,.44,0,.64,.38,1.28,1.15,1.83,.87-2.02,3.47-3.72,6.99-4.69l-7.43,7.71,7.72-7.44c-.97,3.53-2.67,6.13-4.70,7,.55,.77,1.19,1.15,1.83,1.15,.15,0,.29-.02,.44-.06,.09,.25,.20,.49,.31,.72,.12,.23,.25,.46,.40,.67,.23,.33,.51,.64,.85,.87,.14,.09,.29,.17,.45,.23,.34,.12,.73,.12,1.07,0,.34-.12,.64-.35,.89-.61,.32-.34,.58-.74,.79-1.15,.11-.23,.22-.47,.31-.72,.15,.04,.29,.06,.44,.06,.64,0,1.28-.38,1.83-1.15-2.02-.86-3.71-3.45-4.69-6.96l7.68,7.40-7.45-7.73c3.54,.97,6.16,2.68,7.03,4.71,.77-.55,1.15-1.19,1.15-1.83,0,.15-.02,.29-.06,.44,.25-.09,.49-.20,.72-.31,.42-.21,.82-.46,1.15-.79,.26-.25,.48-.55,.61-.89,.12-.34,.13-.73,0-1.07-.06-.16-.14-.31-.23-.45Z"
              style="fill: rgb(255, 179, 112);"/>
      </g>
    </g>
  </g>
</svg>
